<svg xmlns="http://www.w3.org/2000/svg" xmlns:xlink="http://www.w3.org/1999/xlink" width="625" height="443.28"><rect width="625" height="443.28" rx="5" ry="5" class="a"/><circle cx="20" cy="20" r="6.5" fill="#ff5f58"/><circle cx="41" cy="20" r="6.5" fill="#ffbd2e"/><circle cx="62" cy="20" r="6.5" fill="#18c132"/><svg height="390.78" viewBox="0 0 60 39.078" width="600" x="12.5" xmlns="http://www.w3.org/2000/svg" xmlns:xlink="http://www.w3.org/1999/xlink" y="40"><style>.a{fill:#151718}.g{fill:#d4d7d6}.h{fill:#3cf}.i{fill:#414141}.j{fill:#f1f1f1}.k{fill:#3f6}.l{fill:#fc3}.m{fill:#f33}</style><g font-size="1.67" font-family="Monaco,Consolas,Menlo,'Bitstream Vera Sans Mono','Powerline Symbols',monospace"><defs><symbol id="a"><path fill="transparent" d="M0 0h60v19H0z"/></symbol></defs><path class="a" d="M0 0h60v39.078H0z"/><svg width="60"><svg><use xlink:href="#a"/><text y="3.841" class="g">without</text><text x="8.016" y="3.841" class="g">symbols</text><text y="8.183" class="h">debug</text><text x="6.012" y="8.183" class="i">hello</text><text x="12.024" y="8.183" class="i">world</text><text y="10.354" class="j">info</text><text x="5.01" y="10.354" class="i">hello</text><text x="11.022" y="10.354" class="i">world</text><text y="12.525" class="k">success</text><text x="8.016" y="12.525" class="i">hello</text><text x="14.028" y="12.525" class="i">world</text><text y="14.696" class="l">warn</text><text x="5.01" y="14.696" class="i">hello</text><text x="11.022" y="14.696" class="i">world</text><text y="16.867" class="m">error</text><text x="6.012" y="16.867" class="i">hello</text><text x="12.024" y="16.867" class="i">world</text><text y="21.209" class="g">with</text><text x="5.01" y="21.209" class="g">symbols</text><text y="25.551" class="h">ℹ</text><text x="2.004" y="25.551" class="i">hello</text><text x="8.016" y="25.551" class="i">world</text><text y="27.722" class="j">ℹ</text><text x="2.004" y="27.722" class="i">hello</text><text x="8.016" y="27.722" class="i">world</text><text y="29.893" class="k">✔</text><text x="2.004" y="29.893" class="i">hello</text><text x="8.016" y="29.893" class="i">world</text><text y="32.064" class="l">⚠</text><text x="2.004" y="32.064" class="i">hello</text><text x="8.016" y="32.064" class="i">world</text><text y="34.235" class="m">✖</text><text x="2.004" y="34.235" class="i">hello</text><text x="8.016" y="34.235" class="i">world</text></svg></svg></g></svg></svg>